<?xml version="1.0" encoding="utf-8"?>
<!-- Generator: Adobe Illustrator 26.0.1, SVG Export Plug-In . SVG Version: 6.00 Build 0)  -->
<svg version="1.1" id="Layer_1" xmlns="http://www.w3.org/2000/svg" xmlns:xlink="http://www.w3.org/1999/xlink" x="0px" y="0px"
	 viewBox="0 0 510.24 340.16" style="enable-background:new 0 0 510.24 340.16;" xml:space="preserve">
<style type="text/css">
	.st0{fill:#FFFFFF;}
	.st1{fill:#FBAB18;}
	.st2{fill:#A7A9AC;}
</style>
<g>
	<rect x="0" y="0" class="st0" width="510.24" height="340.16"/>
	<g>
		<g>
			<path class="st1" d="M266.28,204.45c-0.6-0.88-1.83-1.41-3.17-1.43c-1.72,0-2.97,0.72-2.97,1.94c0,1.25,1.43,1.6,3.12,1.83
				c2.64,0.37,5.15,1.1,5.15,3.98c-0.02,2.88-2.64,3.96-5.32,3.96c-2.46,0-4.35-0.75-5.52-2.92l1.54-1.03
				c0.92,1.56,2.51,2.11,4,2.11c1.54,0,3.25-0.51,3.25-2.13c0-1.39-1.49-1.87-3.28-2.11c-2.55-0.35-4.97-0.99-4.97-3.74
				c-0.02-2.66,2.64-3.69,4.95-3.69c1.85,0,3.71,0.44,4.79,2.16L266.28,204.45z M283.06,208.09c0,3.47-2.11,6.64-6.57,6.64
				s-6.57-3.25-6.57-6.62c0-3.91,2.73-6.73,6.6-6.73C280.91,201.39,283.06,204.62,283.06,208.09z M276.49,212.84
				c3.19,0,4.53-2.26,4.53-4.71c0-2.37-1.36-4.82-4.49-4.88c-2.97,0-4.57,2.07-4.57,4.88C272,210.4,273.32,212.84,276.49,212.84z
				 M287.55,201.61v10.93h5.98v1.91h-8.04v-12.84H287.55z M305.16,211.75h-6.95l-1.21,2.7h-2.18l5.76-12.84h2.24l5.76,12.84h-2.18
				L305.16,211.75z M301.69,203.78l-2.71,6.11h5.43L301.69,203.78z M321.43,214.45h-2.4l-3.91-4.44h-2.71v4.44h-2.05v-12.86
				c2,0,3.98,0.02,5.98,0.02c2.97,0,4.53,2.04,4.53,4.2c0,1.83-0.95,3.63-3.48,4l3.83,4.27L321.43,214.45z M312.4,203.48v4.66h3.91
				c1.71,0,2.46-1.08,2.46-2.29c0-1.16-0.75-2.37-2.44-2.37H312.4z"/>
			<path class="st1" d="M141.73,208.55h108.3v1.59h-108.3V208.55z M329.52,210.14h38.99v-1.59h-38.99V210.14z"/>
		</g>
		<path class="st1" d="M319.8,156.81c0,16.75-13.59,30.32-30.33,30.32c-3.36,0-6.58-0.54-9.6-1.56l31.98-29.47h-5.25l-35.75,24.64
			c-1.83-1.43-3.5-3.06-4.96-4.88l40.71-24.37h-7.17l-37.93,17.1c-0.74-1.77-1.32-3.63-1.72-5.56l39.31-14.43h-8.77l-31.19,8.38
			v-0.17c0-1.43,0.1-2.82,0.29-4.19l30.89-7.01h-8.59l-21.47,3.06c3.55-12.81,15.27-22.19,29.2-22.19
			C306.22,126.48,319.8,140.05,319.8,156.81z"/>
		<path class="st1" d="M177.86,126.4l21.77,60.66h-13.11l-4.01-12.4h-23.46l-4.01,12.4h-13.29l20.25-56.64
			c0.89-2.68,2.85-4.01,5.89-4.01H177.86z M162.34,164.4h16.68l-8.38-25.78L162.34,164.4z M241.69,170.19
			c0-2.94-1.78-4.91-5.53-5.98c-3.57-1.07-7.67-2.14-12.04-3.3c-11.86-3.03-17.75-8.56-17.75-16.59c0.27-12.76,7.85-19,22.84-18.91
			c14.27,0,21.68,6.24,22.39,18.82h-6.96c-2.59,0-4.37-1.25-5.53-3.57c-2.05-3.48-5.71-5.17-10.97-5.17
			c-6.42,0.09-9.63,2.5-9.9,7.14c0,3.84,3.84,6.6,11.77,8.39c4.55,1.07,9.37,2.41,14.45,4.19c6.78,2.32,9.99,7.31,9.63,14.99
			c-0.71,11.86-8.74,17.75-24.08,17.75c-16.06,0-24.17-6.69-24.53-19.89h12.04c0.45,6.42,4.55,9.63,12.49,9.63
			C237.94,177.69,241.78,175.19,241.69,170.19z M326.49,126.4h42.01v10.79h-17.93v49.86h-12.4v-49.86h-17.93v-4.28
			C320.24,129.43,323.01,126.4,326.49,126.4z"/>
	</g>
</g>
<g>
	<rect x="0" y="-1546.22" class="st1" width="510.24" height="340.16"/>
	<g>
		<g>
			<path class="st0" d="M266.28-1341.76c-0.6-0.88-1.83-1.41-3.17-1.43c-1.72,0-2.97,0.72-2.97,1.94c0,1.25,1.43,1.6,3.12,1.83
				c2.64,0.37,5.15,1.1,5.15,3.98c-0.02,2.88-2.64,3.96-5.32,3.96c-2.46,0-4.35-0.75-5.52-2.92l1.54-1.03
				c0.92,1.56,2.51,2.11,4,2.11c1.54,0,3.25-0.51,3.25-2.13c0-1.39-1.49-1.87-3.28-2.11c-2.55-0.35-4.97-0.99-4.97-3.74
				c-0.02-2.66,2.64-3.69,4.95-3.69c1.85,0,3.71,0.44,4.79,2.16L266.28-1341.76z M283.06-1338.13c0,3.47-2.11,6.64-6.57,6.64
				s-6.57-3.25-6.57-6.62c0-3.91,2.73-6.73,6.6-6.73C280.91-1344.83,283.06-1341.6,283.06-1338.13z M276.49-1333.38
				c3.19,0,4.53-2.26,4.53-4.71c0-2.37-1.36-4.82-4.49-4.88c-2.97,0-4.57,2.07-4.57,4.88C272-1335.82,273.32-1333.38,276.49-1333.38
				z M287.55-1344.61v10.93h5.98v1.91h-8.04v-12.84H287.55z M305.16-1334.46h-6.95l-1.21,2.7h-2.18l5.76-12.84h2.24l5.76,12.84
				h-2.18L305.16-1334.46z M301.69-1342.44l-2.71,6.11h5.43L301.69-1342.44z M321.43-1331.77h-2.4l-3.91-4.44h-2.71v4.44h-2.05
				v-12.86c2,0,3.98,0.02,5.98,0.02c2.97,0,4.53,2.04,4.53,4.2c0,1.83-0.95,3.63-3.48,4l3.83,4.27L321.43-1331.77z M312.4-1342.73
				v4.66h3.91c1.71,0,2.46-1.08,2.46-2.29c0-1.16-0.75-2.37-2.44-2.37H312.4z"/>
			<path class="st0" d="M141.73-1337.66h108.3v1.59h-108.3V-1337.66z M329.52-1336.07h38.99v-1.59h-38.99V-1336.07z"/>
		</g>
		<path class="st0" d="M319.8-1389.41c0,16.75-13.59,30.32-30.33,30.32c-3.36,0-6.58-0.54-9.6-1.56l31.98-29.47h-5.25l-35.75,24.64
			c-1.83-1.43-3.5-3.06-4.96-4.88l40.71-24.37h-7.17l-37.93,17.1c-0.74-1.77-1.32-3.63-1.72-5.56l39.31-14.43h-8.77l-31.19,8.38
			v-0.17c0-1.43,0.1-2.82,0.29-4.19l30.89-7.01h-8.59l-21.47,3.06c3.55-12.81,15.27-22.19,29.2-22.19
			C306.22-1419.74,319.8-1406.17,319.8-1389.41z"/>
		<path class="st0" d="M177.86-1419.82l21.77,60.66h-13.11l-4.01-12.4h-23.46l-4.01,12.4h-13.29l20.25-56.64
			c0.89-2.68,2.85-4.01,5.89-4.01H177.86z M162.34-1381.82h16.68l-8.38-25.78L162.34-1381.82z M241.69-1376.02
			c0-2.94-1.78-4.91-5.53-5.98c-3.57-1.07-7.67-2.14-12.04-3.3c-11.86-3.03-17.75-8.56-17.75-16.59c0.27-12.76,7.85-19,22.84-18.91
			c14.27,0,21.68,6.24,22.39,18.82h-6.96c-2.59,0-4.37-1.25-5.53-3.57c-2.05-3.48-5.71-5.17-10.97-5.17
			c-6.42,0.09-9.63,2.5-9.9,7.14c0,3.84,3.84,6.6,11.77,8.39c4.55,1.07,9.37,2.41,14.45,4.19c6.78,2.32,9.99,7.31,9.63,14.99
			c-0.71,11.86-8.74,17.75-24.08,17.75c-16.06,0-24.17-6.69-24.53-19.89h12.04c0.45,6.42,4.55,9.63,12.49,9.63
			C237.94-1368.53,241.78-1371.03,241.69-1376.02z M326.49-1419.82h42.01v10.79h-17.93v49.86h-12.4v-49.86h-17.93v-4.28
			C320.24-1416.79,323.01-1419.82,326.49-1419.82z"/>
	</g>
</g>
<g>
	<rect x="0" y="-387.37" width="510.24" height="340.16"/>
	<g>
		<g>
			<path class="st0" d="M266.28-182.92c-0.6-0.88-1.83-1.41-3.17-1.43c-1.72,0-2.97,0.72-2.97,1.94c0,1.25,1.43,1.6,3.12,1.83
				c2.64,0.37,5.15,1.1,5.15,3.98c-0.02,2.88-2.64,3.96-5.32,3.96c-2.46,0-4.35-0.75-5.52-2.92l1.54-1.03
				c0.92,1.56,2.51,2.11,4,2.11c1.54,0,3.25-0.51,3.25-2.13c0-1.39-1.49-1.87-3.28-2.11c-2.55-0.35-4.97-0.99-4.97-3.74
				c-0.02-2.66,2.64-3.69,4.95-3.69c1.85,0,3.71,0.44,4.79,2.16L266.28-182.92z M283.06-179.28c0,3.47-2.11,6.64-6.57,6.64
				s-6.57-3.25-6.57-6.62c0-3.91,2.73-6.73,6.6-6.73C280.91-185.98,283.06-182.75,283.06-179.28z M276.49-174.53
				c3.19,0,4.53-2.26,4.53-4.71c0-2.37-1.36-4.82-4.49-4.88c-2.97,0-4.57,2.07-4.57,4.88C272-176.97,273.32-174.53,276.49-174.53z
				 M287.55-185.76v10.93h5.98v1.91h-8.04v-12.84H287.55z M305.16-175.62h-6.95l-1.21,2.7h-2.18l5.76-12.84h2.24l5.76,12.84h-2.18
				L305.16-175.62z M301.69-183.59l-2.71,6.11h5.43L301.69-183.59z M321.43-172.92h-2.4l-3.91-4.44h-2.71v4.44h-2.05v-12.86
				c2,0,3.98,0.02,5.98,0.02c2.97,0,4.53,2.04,4.53,4.2c0,1.83-0.95,3.63-3.48,4l3.83,4.27L321.43-172.92z M312.4-183.89v4.66h3.91
				c1.71,0,2.46-1.08,2.46-2.29c0-1.16-0.75-2.37-2.44-2.37H312.4z"/>
			<path class="st0" d="M141.73-178.82h108.3v1.59h-108.3V-178.82z M329.52-177.23h38.99v-1.59h-38.99V-177.23z"/>
		</g>
		<path class="st0" d="M319.8-230.56c0,16.75-13.59,30.32-30.33,30.32c-3.36,0-6.58-0.54-9.6-1.56l31.98-29.47h-5.25l-35.75,24.64
			c-1.83-1.43-3.5-3.06-4.96-4.88l40.71-24.37h-7.17l-37.93,17.1c-0.74-1.77-1.32-3.63-1.72-5.56l39.31-14.43h-8.77l-31.19,8.38
			v-0.17c0-1.43,0.1-2.82,0.29-4.19l30.89-7.01h-8.59l-21.47,3.06c3.55-12.81,15.27-22.19,29.2-22.19
			C306.22-260.9,319.8-247.32,319.8-230.56z"/>
		<path class="st0" d="M177.86-260.98l21.77,60.66h-13.11l-4.01-12.4h-23.46l-4.01,12.4h-13.29l20.25-56.64
			c0.89-2.68,2.85-4.01,5.89-4.01H177.86z M162.34-222.97h16.68l-8.38-25.78L162.34-222.97z M241.69-217.18
			c0-2.94-1.78-4.91-5.53-5.98c-3.57-1.07-7.67-2.14-12.04-3.3c-11.86-3.03-17.75-8.56-17.75-16.59c0.27-12.76,7.85-19,22.84-18.91
			c14.27,0,21.68,6.24,22.39,18.82h-6.96c-2.59,0-4.37-1.25-5.53-3.57c-2.05-3.48-5.71-5.17-10.97-5.17
			c-6.42,0.09-9.63,2.5-9.9,7.14c0,3.84,3.84,6.6,11.77,8.39c4.55,1.07,9.37,2.41,14.45,4.19c6.78,2.32,9.99,7.31,9.63,14.99
			c-0.71,11.86-8.74,17.75-24.08,17.75c-16.06,0-24.17-6.69-24.53-19.89h12.04c0.45,6.42,4.55,9.63,12.49,9.63
			C237.94-209.68,241.78-212.18,241.69-217.18z M326.49-260.98h42.01v10.79h-17.93v49.86h-12.4v-49.86h-17.93v-4.28
			C320.24-257.94,323.01-260.98,326.49-260.98z"/>
	</g>
</g>
<g>
	<rect x="0" y="-769.02" class="st0" width="510.24" height="340.16"/>
	<g>
		<g>
			<path d="M266.28-564.56c-0.6-0.88-1.83-1.41-3.17-1.43c-1.72,0-2.97,0.72-2.97,1.94c0,1.25,1.43,1.6,3.12,1.83
				c2.64,0.37,5.15,1.1,5.15,3.98c-0.02,2.88-2.64,3.96-5.32,3.96c-2.46,0-4.35-0.75-5.52-2.92l1.54-1.03
				c0.92,1.56,2.51,2.11,4,2.11c1.54,0,3.25-0.51,3.25-2.13c0-1.39-1.49-1.87-3.28-2.11c-2.55-0.35-4.97-0.99-4.97-3.74
				c-0.02-2.66,2.64-3.69,4.95-3.69c1.85,0,3.71,0.44,4.79,2.16L266.28-564.56z M283.06-560.93c0,3.47-2.11,6.64-6.57,6.64
				s-6.57-3.25-6.57-6.62c0-3.91,2.73-6.73,6.6-6.73C280.91-567.62,283.06-564.4,283.06-560.93z M276.49-556.18
				c3.19,0,4.53-2.26,4.53-4.71c0-2.37-1.36-4.82-4.49-4.88c-2.97,0-4.57,2.07-4.57,4.88C272-558.62,273.32-556.18,276.49-556.18z
				 M287.55-567.4v10.93h5.98v1.91h-8.04v-12.84H287.55z M305.16-557.26h-6.95l-1.21,2.7h-2.18l5.76-12.84h2.24l5.76,12.84h-2.18
				L305.16-557.26z M301.69-565.24l-2.71,6.11h5.43L301.69-565.24z M321.43-554.56h-2.4l-3.91-4.44h-2.71v4.44h-2.05v-12.86
				c2,0,3.98,0.02,5.98,0.02c2.97,0,4.53,2.04,4.53,4.2c0,1.83-0.95,3.63-3.48,4l3.83,4.27L321.43-554.56z M312.4-565.53v4.66h3.91
				c1.71,0,2.46-1.08,2.46-2.29c0-1.16-0.75-2.37-2.44-2.37H312.4z"/>
			<path d="M141.73-560.46h108.3v1.59h-108.3V-560.46z M329.52-558.87h38.99v-1.59h-38.99V-558.87z"/>
		</g>
		<path d="M319.8-612.21c0,16.75-13.59,30.32-30.33,30.32c-3.36,0-6.58-0.54-9.6-1.56l31.98-29.47h-5.25l-35.75,24.64
			c-1.83-1.43-3.5-3.06-4.96-4.88l40.71-24.37h-7.17l-37.93,17.1c-0.74-1.77-1.32-3.63-1.72-5.56l39.31-14.43h-8.77l-31.19,8.38
			v-0.17c0-1.43,0.1-2.82,0.29-4.19l30.89-7.01h-8.59l-21.47,3.06c3.55-12.81,15.27-22.19,29.2-22.19
			C306.22-642.54,319.8-628.97,319.8-612.21z"/>
		<path d="M177.86-642.62l21.77,60.66h-13.11l-4.01-12.4h-23.46l-4.01,12.4h-13.29l20.25-56.64c0.89-2.68,2.85-4.01,5.89-4.01
			H177.86z M162.34-604.62h16.68l-8.38-25.78L162.34-604.62z M241.69-598.82c0-2.94-1.78-4.91-5.53-5.98
			c-3.57-1.07-7.67-2.14-12.04-3.3c-11.86-3.03-17.75-8.56-17.75-16.59c0.27-12.76,7.85-19,22.84-18.91
			c14.27,0,21.68,6.24,22.39,18.82h-6.96c-2.59,0-4.37-1.25-5.53-3.57c-2.05-3.48-5.71-5.17-10.97-5.17
			c-6.42,0.09-9.63,2.5-9.9,7.14c0,3.84,3.84,6.6,11.77,8.39c4.55,1.07,9.37,2.41,14.45,4.19c6.78,2.32,9.99,7.31,9.63,14.99
			c-0.71,11.86-8.74,17.75-24.08,17.75c-16.06,0-24.17-6.69-24.53-19.89h12.04c0.45,6.42,4.55,9.63,12.49,9.63
			C237.94-591.33,241.78-593.83,241.69-598.82z M326.49-642.62h42.01v10.79h-17.93v49.86h-12.4v-49.86h-17.93v-4.28
			C320.24-639.59,323.01-642.62,326.49-642.62z"/>
	</g>
</g>
<g>
	<rect x="0" y="-1157.73" class="st0" width="510.24" height="340.16"/>
	<g>
		<g>
			<path class="st2" d="M266.28-953.27c-0.6-0.88-1.83-1.41-3.17-1.43c-1.72,0-2.97,0.72-2.97,1.94c0,1.25,1.43,1.6,3.12,1.83
				c2.64,0.37,5.15,1.1,5.15,3.98c-0.02,2.88-2.64,3.96-5.32,3.96c-2.46,0-4.35-0.75-5.52-2.92l1.54-1.03
				c0.92,1.56,2.51,2.11,4,2.11c1.54,0,3.25-0.51,3.25-2.13c0-1.39-1.49-1.87-3.28-2.11c-2.55-0.35-4.97-0.99-4.97-3.74
				c-0.02-2.66,2.64-3.69,4.95-3.69c1.85,0,3.71,0.44,4.79,2.16L266.28-953.27z M283.06-949.64c0,3.47-2.11,6.64-6.57,6.64
				s-6.57-3.25-6.57-6.62c0-3.91,2.73-6.73,6.6-6.73C280.91-956.33,283.06-953.11,283.06-949.64z M276.49-944.89
				c3.19,0,4.53-2.26,4.53-4.71c0-2.37-1.36-4.82-4.49-4.88c-2.97,0-4.57,2.07-4.57,4.88C272-947.33,273.32-944.89,276.49-944.89z
				 M287.55-956.12v10.93h5.98v1.91h-8.04v-12.84H287.55z M305.16-945.97h-6.95l-1.21,2.7h-2.18l5.76-12.84h2.24l5.76,12.84h-2.18
				L305.16-945.97z M301.69-953.95l-2.71,6.11h5.43L301.69-953.95z M321.43-943.28h-2.4l-3.91-4.44h-2.71v4.44h-2.05v-12.86
				c2,0,3.98,0.02,5.98,0.02c2.97,0,4.53,2.04,4.53,4.2c0,1.83-0.95,3.63-3.48,4l3.83,4.27L321.43-943.28z M312.4-954.24v4.66h3.91
				c1.71,0,2.46-1.08,2.46-2.29c0-1.16-0.75-2.37-2.44-2.37H312.4z"/>
			<path class="st2" d="M141.73-949.17h108.3v1.59h-108.3V-949.17z M329.52-947.58h38.99v-1.59h-38.99V-947.58z"/>
		</g>
		<path class="st2" d="M319.8-1000.92c0,16.75-13.59,30.32-30.33,30.32c-3.36,0-6.58-0.54-9.6-1.56l31.98-29.47h-5.25L270.85-977
			c-1.83-1.43-3.5-3.06-4.96-4.88l40.71-24.37h-7.17l-37.93,17.1c-0.74-1.77-1.32-3.63-1.72-5.56l39.31-14.43h-8.77l-31.19,8.38
			v-0.17c0-1.43,0.1-2.82,0.29-4.19l30.89-7.01h-8.59l-21.47,3.06c3.55-12.81,15.27-22.19,29.2-22.19
			C306.22-1031.25,319.8-1017.68,319.8-1000.92z"/>
		<path d="M177.86-1031.33l21.77,60.66h-13.11l-4.01-12.4h-23.46l-4.01,12.4h-13.29l20.25-56.64c0.89-2.68,2.85-4.01,5.89-4.01
			H177.86z M162.34-993.33h16.68l-8.38-25.78L162.34-993.33z M241.69-987.53c0-2.94-1.78-4.91-5.53-5.98
			c-3.57-1.07-7.67-2.14-12.04-3.3c-11.86-3.03-17.75-8.56-17.75-16.59c0.27-12.76,7.85-19,22.84-18.91
			c14.27,0,21.68,6.24,22.39,18.82h-6.96c-2.59,0-4.37-1.25-5.53-3.57c-2.05-3.48-5.71-5.17-10.97-5.17
			c-6.42,0.09-9.63,2.5-9.9,7.14c0,3.84,3.84,6.6,11.77,8.39c4.55,1.07,9.37,2.41,14.45,4.19c6.78,2.32,9.99,7.31,9.63,14.99
			c-0.71,11.86-8.74,17.75-24.08,17.75c-16.06,0-24.17-6.69-24.53-19.89h12.04c0.45,6.42,4.55,9.63,12.49,9.63
			C237.94-980.04,241.78-982.54,241.69-987.53z M326.49-1031.33h42.01v10.79h-17.93v49.86h-12.4v-49.86h-17.93v-4.28
			C320.24-1028.3,323.01-1031.33,326.49-1031.33z"/>
	</g>
</g>
<g>
	<rect x="0" y="-2338" class="st0" width="510.24" height="340.16"/>
	<g>
		<g>
			<path class="st2" d="M266.28-2133.54c-0.6-0.88-1.83-1.41-3.17-1.43c-1.72,0-2.97,0.72-2.97,1.94c0,1.25,1.43,1.6,3.12,1.83
				c2.64,0.37,5.15,1.1,5.15,3.98c-0.02,2.88-2.64,3.96-5.32,3.96c-2.46,0-4.35-0.75-5.52-2.92l1.54-1.03
				c0.92,1.56,2.51,2.11,4,2.11c1.54,0,3.25-0.51,3.25-2.13c0-1.39-1.49-1.87-3.28-2.11c-2.55-0.35-4.97-0.99-4.97-3.74
				c-0.02-2.66,2.64-3.69,4.95-3.69c1.85,0,3.71,0.44,4.79,2.16L266.28-2133.54z M283.06-2129.91c0,3.47-2.11,6.64-6.57,6.64
				s-6.57-3.25-6.57-6.62c0-3.91,2.73-6.73,6.6-6.73C280.91-2136.6,283.06-2133.38,283.06-2129.91z M276.49-2125.16
				c3.19,0,4.53-2.26,4.53-4.71c0-2.37-1.36-4.82-4.49-4.88c-2.97,0-4.57,2.07-4.57,4.88C272-2127.6,273.32-2125.16,276.49-2125.16z
				 M287.55-2136.39v10.93h5.98v1.91h-8.04v-12.84H287.55z M305.16-2126.24h-6.95l-1.21,2.7h-2.18l5.76-12.84h2.24l5.76,12.84h-2.18
				L305.16-2126.24z M301.69-2134.22l-2.71,6.11h5.43L301.69-2134.22z M321.43-2123.55h-2.4l-3.91-4.44h-2.71v4.44h-2.05v-12.86
				c2,0,3.98,0.02,5.98,0.02c2.97,0,4.53,2.04,4.53,4.2c0,1.83-0.95,3.63-3.48,4l3.83,4.27L321.43-2123.55z M312.4-2134.51v4.66
				h3.91c1.71,0,2.46-1.08,2.46-2.29c0-1.16-0.75-2.37-2.44-2.37H312.4z"/>
			<path class="st2" d="M141.73-2129.44h108.3v1.59h-108.3V-2129.44z M329.52-2127.85h38.99v-1.59h-38.99V-2127.85z"/>
		</g>
		<path class="st1" d="M319.8-2181.19c0,16.75-13.59,30.32-30.33,30.32c-3.36,0-6.58-0.54-9.6-1.56l31.98-29.47h-5.25l-35.75,24.64
			c-1.83-1.43-3.5-3.06-4.96-4.88l40.71-24.37h-7.17l-37.93,17.1c-0.74-1.77-1.32-3.63-1.72-5.56l39.31-14.43h-8.77l-31.19,8.38
			v-0.17c0-1.43,0.1-2.82,0.29-4.19l30.89-7.01h-8.59l-21.47,3.06c3.55-12.81,15.27-22.19,29.2-22.19
			C306.22-2211.52,319.8-2197.95,319.8-2181.19z"/>
		<path d="M177.86-2211.6l21.77,60.66h-13.11l-4.01-12.4h-23.46l-4.01,12.4h-13.29l20.25-56.64c0.89-2.68,2.85-4.01,5.89-4.01
			H177.86z M162.34-2173.6h16.68l-8.38-25.78L162.34-2173.6z M241.69-2167.8c0-2.94-1.78-4.91-5.53-5.98
			c-3.57-1.07-7.67-2.14-12.04-3.3c-11.86-3.03-17.75-8.56-17.75-16.59c0.27-12.76,7.85-19,22.84-18.91
			c14.27,0,21.68,6.24,22.39,18.82h-6.96c-2.59,0-4.37-1.25-5.53-3.57c-2.05-3.48-5.71-5.17-10.97-5.17
			c-6.42,0.09-9.63,2.5-9.9,7.14c0,3.84,3.84,6.6,11.77,8.39c4.55,1.07,9.37,2.41,14.45,4.19c6.78,2.32,9.99,7.31,9.63,14.99
			c-0.71,11.86-8.74,17.75-24.08,17.75c-16.06,0-24.17-6.69-24.53-19.89h12.04c0.45,6.42,4.55,9.63,12.49,9.63
			C237.94-2160.31,241.78-2162.81,241.69-2167.8z M326.49-2211.6h42.01v10.79h-17.93v49.86h-12.4v-49.86h-17.93v-4.28
			C320.24-2208.57,323.01-2211.6,326.49-2211.6z"/>
	</g>
</g>
<g>
	<rect x="0" y="-1933.83" width="510.24" height="340.16"/>
	<g>
		<g>
			<path class="st2" d="M266.28-1729.37c-0.6-0.88-1.83-1.41-3.17-1.43c-1.72,0-2.97,0.72-2.97,1.94c0,1.25,1.43,1.6,3.12,1.83
				c2.64,0.37,5.15,1.1,5.15,3.98c-0.02,2.88-2.64,3.96-5.32,3.96c-2.46,0-4.35-0.75-5.52-2.92l1.54-1.03
				c0.92,1.56,2.51,2.11,4,2.11c1.54,0,3.25-0.51,3.25-2.13c0-1.39-1.49-1.87-3.28-2.11c-2.55-0.35-4.97-0.99-4.97-3.74
				c-0.02-2.66,2.64-3.69,4.95-3.69c1.85,0,3.71,0.44,4.79,2.16L266.28-1729.37z M283.06-1725.74c0,3.47-2.11,6.64-6.57,6.64
				s-6.57-3.25-6.57-6.62c0-3.91,2.73-6.73,6.6-6.73C280.91-1732.43,283.06-1729.21,283.06-1725.74z M276.49-1720.99
				c3.19,0,4.53-2.26,4.53-4.71c0-2.37-1.36-4.82-4.49-4.88c-2.97,0-4.57,2.07-4.57,4.88C272-1723.43,273.32-1720.99,276.49-1720.99
				z M287.55-1732.21v10.93h5.98v1.91h-8.04v-12.84H287.55z M305.16-1722.07h-6.95l-1.21,2.7h-2.18l5.76-12.84h2.24l5.76,12.84
				h-2.18L305.16-1722.07z M301.69-1730.05l-2.71,6.11h5.43L301.69-1730.05z M321.43-1719.37h-2.4l-3.91-4.44h-2.71v4.44h-2.05
				v-12.86c2,0,3.98,0.02,5.98,0.02c2.97,0,4.53,2.04,4.53,4.2c0,1.83-0.95,3.63-3.48,4l3.83,4.27L321.43-1719.37z M312.4-1730.34
				v4.66h3.91c1.71,0,2.46-1.08,2.46-2.29c0-1.16-0.75-2.37-2.44-2.37H312.4z"/>
			<path class="st2" d="M141.73-1725.27h108.3v1.59h-108.3V-1725.27z M329.52-1723.68h38.99v-1.59h-38.99V-1723.68z"/>
		</g>
		<path class="st1" d="M319.8-1777.02c0,16.75-13.59,30.32-30.33,30.32c-3.36,0-6.58-0.54-9.6-1.56l31.98-29.47h-5.25l-35.75,24.64
			c-1.83-1.43-3.5-3.06-4.96-4.88l40.71-24.37h-7.17l-37.93,17.1c-0.74-1.77-1.32-3.63-1.72-5.56l39.31-14.43h-8.77l-31.19,8.38
			v-0.17c0-1.43,0.1-2.82,0.29-4.19l30.89-7.01h-8.59l-21.47,3.06c3.55-12.81,15.27-22.19,29.2-22.19
			C306.22-1807.35,319.8-1793.78,319.8-1777.02z"/>
		<path class="st0" d="M177.86-1807.43l21.77,60.66h-13.11l-4.01-12.4h-23.46l-4.01,12.4h-13.29l20.25-56.64
			c0.89-2.68,2.85-4.01,5.89-4.01H177.86z M162.34-1769.43h16.68l-8.38-25.78L162.34-1769.43z M241.69-1763.63
			c0-2.94-1.78-4.91-5.53-5.98c-3.57-1.07-7.67-2.14-12.04-3.3c-11.86-3.03-17.75-8.56-17.75-16.59c0.27-12.76,7.85-19,22.84-18.91
			c14.27,0,21.68,6.24,22.39,18.82h-6.96c-2.59,0-4.37-1.25-5.53-3.57c-2.05-3.48-5.71-5.17-10.97-5.17
			c-6.42,0.09-9.63,2.5-9.9,7.14c0,3.84,3.84,6.6,11.77,8.39c4.55,1.07,9.37,2.41,14.45,4.19c6.78,2.32,9.99,7.31,9.63,14.99
			c-0.71,11.86-8.74,17.75-24.08,17.75c-16.06,0-24.17-6.69-24.53-19.89h12.04c0.45,6.42,4.55,9.63,12.49,9.63
			C237.94-1756.14,241.78-1758.64,241.69-1763.63z M326.49-1807.43h42.01v10.79h-17.93v49.86h-12.4v-49.86h-17.93v-4.28
			C320.24-1804.4,323.01-1807.43,326.49-1807.43z"/>
	</g>
</g>
</svg>
